<svg id="visual" viewBox="0 0 900 300" width="900" height="300" xmlns="http://www.w3.org/2000/svg" xmlns:xlink="http://www.w3.org/1999/xlink" version="1.1"><path d="M0 229L16.7 227.3C33.3 225.7 66.7 222.3 100 221.5C133.3 220.7 166.7 222.3 200 220.7C233.3 219 266.7 214 300 213C333.3 212 366.7 215 400 215.7C433.3 216.3 466.7 214.7 500 214.2C533.3 213.7 566.7 214.3 600 214.5C633.3 214.7 666.7 214.3 700 214.7C733.3 215 766.7 216 800 217.7C833.3 219.3 866.7 221.7 883.3 222.8L900 224L900 301L883.3 301C866.7 301 833.3 301 800 301C766.7 301 733.3 301 700 301C666.7 301 633.3 301 600 301C566.7 301 533.3 301 500 301C466.7 301 433.3 301 400 301C366.7 301 333.3 301 300 301C266.7 301 233.3 301 200 301C166.7 301 133.3 301 100 301C66.7 301 33.3 301 16.7 301L0 301Z" fill="#ffe585"></path><path d="M0 228L16.7 226.5C33.3 225 66.7 222 100 223C133.3 224 166.7 229 200 232.7C233.3 236.3 266.7 238.7 300 236.3C333.3 234 366.7 227 400 223C433.3 219 466.7 218 500 219.5C533.3 221 566.7 225 600 228C633.3 231 666.7 233 700 231.8C733.3 230.7 766.7 226.3 800 227.7C833.3 229 866.7 236 883.3 239.5L900 243L900 301L883.3 301C866.7 301 833.3 301 800 301C766.7 301 733.3 301 700 301C666.7 301 633.3 301 600 301C566.7 301 533.3 301 500 301C466.7 301 433.3 301 400 301C366.7 301 333.3 301 300 301C266.7 301 233.3 301 200 301C166.7 301 133.3 301 100 301C66.7 301 33.3 301 16.7 301L0 301Z" fill="#fed572"></path><path d="M0 250L16.7 249.3C33.3 248.7 66.7 247.3 100 246.5C133.3 245.7 166.7 245.3 200 246.3C233.3 247.3 266.7 249.7 300 248.3C333.3 247 366.7 242 400 241.5C433.3 241 466.7 245 500 247.5C533.3 250 566.7 251 600 251C633.3 251 666.7 250 700 246.8C733.3 243.7 766.7 238.3 800 236.7C833.3 235 866.7 237 883.3 238L900 239L900 301L883.3 301C866.7 301 833.3 301 800 301C766.7 301 733.3 301 700 301C666.7 301 633.3 301 600 301C566.7 301 533.3 301 500 301C466.7 301 433.3 301 400 301C366.7 301 333.3 301 300 301C266.7 301 233.3 301 200 301C166.7 301 133.3 301 100 301C66.7 301 33.3 301 16.7 301L0 301Z" fill="#fdc562"></path><path d="M0 266L16.7 266C33.3 266 66.7 266 100 265.3C133.3 264.7 166.7 263.3 200 261.2C233.3 259 266.7 256 300 254C333.3 252 366.7 251 400 253C433.3 255 466.7 260 500 262.3C533.3 264.7 566.7 264.3 600 261.3C633.3 258.3 666.7 252.7 700 252C733.3 251.3 766.7 255.7 800 258C833.3 260.3 866.7 260.7 883.3 260.8L900 261L900 301L883.3 301C866.7 301 833.3 301 800 301C766.7 301 733.3 301 700 301C666.7 301 633.3 301 600 301C566.7 301 533.3 301 500 301C466.7 301 433.3 301 400 301C366.7 301 333.3 301 300 301C266.7 301 233.3 301 200 301C166.7 301 133.3 301 100 301C66.7 301 33.3 301 16.7 301L0 301Z" fill="#fdb553"></path><path d="M0 271L16.7 271.8C33.3 272.7 66.7 274.3 100 273.3C133.3 272.3 166.7 268.7 200 267.2C233.3 265.7 266.7 266.3 300 266.8C333.3 267.3 366.7 267.7 400 268.8C433.3 270 466.7 272 500 272.8C533.3 273.7 566.7 273.3 600 273.2C633.3 273 666.7 273 700 272.2C733.3 271.3 766.7 269.7 800 270.3C833.3 271 866.7 274 883.3 275.5L900 277L900 301L883.3 301C866.7 301 833.3 301 800 301C766.7 301 733.3 301 700 301C666.7 301 633.3 301 600 301C566.7 301 533.3 301 500 301C466.7 301 433.3 301 400 301C366.7 301 333.3 301 300 301C266.7 301 233.3 301 200 301C166.7 301 133.3 301 100 301C66.7 301 33.3 301 16.7 301L0 301Z" fill="#fca446"></path><path d="M0 288L16.7 287C33.3 286 66.7 284 100 282.3C133.3 280.7 166.7 279.3 200 279.2C233.3 279 266.7 280 300 281C333.3 282 366.7 283 400 282.3C433.3 281.7 466.7 279.3 500 278.3C533.3 277.3 566.7 277.7 600 279.3C633.3 281 666.7 284 700 284.5C733.3 285 766.7 283 800 281.8C833.3 280.7 866.7 280.3 883.3 280.2L900 280L900 301L883.3 301C866.7 301 833.3 301 800 301C766.7 301 733.3 301 700 301C666.7 301 633.3 301 600 301C566.7 301 533.3 301 500 301C466.7 301 433.3 301 400 301C366.7 301 333.3 301 300 301C266.7 301 233.3 301 200 301C166.7 301 133.3 301 100 301C66.7 301 33.3 301 16.7 301L0 301Z" fill="#fb923c"></path></svg>