<svg id="visual" viewBox="0 0 900 300" width="900" height="300" xmlns="http://www.w3.org/2000/svg" xmlns:xlink="http://www.w3.org/1999/xlink" version="1.1"><rect x="0" y="0" width="900" height="300" fill="#f8fafc"></rect><defs><linearGradient id="grad1_0" x1="66.7%" y1="100%" x2="100%" y2="0%"><stop offset="-10%" stop-color="#fb923c" stop-opacity="1"></stop><stop offset="110%" stop-color="#fb923c" stop-opacity="1"></stop></linearGradient></defs><defs><linearGradient id="grad1_1" x1="66.7%" y1="100%" x2="100%" y2="0%"><stop offset="-10%" stop-color="#fb923c" stop-opacity="1"></stop><stop offset="110%" stop-color="#ff9178" stop-opacity="1"></stop></linearGradient></defs><defs><linearGradient id="grad1_2" x1="66.7%" y1="100%" x2="100%" y2="0%"><stop offset="-10%" stop-color="#ff9dae" stop-opacity="1"></stop><stop offset="110%" stop-color="#ff9178" stop-opacity="1"></stop></linearGradient></defs><defs><linearGradient id="grad1_3" x1="66.7%" y1="100%" x2="100%" y2="0%"><stop offset="-10%" stop-color="#ff9dae" stop-opacity="1"></stop><stop offset="110%" stop-color="#ffb1db" stop-opacity="1"></stop></linearGradient></defs><defs><linearGradient id="grad1_4" x1="66.7%" y1="100%" x2="100%" y2="0%"><stop offset="-10%" stop-color="#fac9f8" stop-opacity="1"></stop><stop offset="110%" stop-color="#ffb1db" stop-opacity="1"></stop></linearGradient></defs><defs><linearGradient id="grad1_5" x1="66.7%" y1="100%" x2="100%" y2="0%"><stop offset="-10%" stop-color="#fac9f8" stop-opacity="1"></stop><stop offset="110%" stop-color="#e9ddff" stop-opacity="1"></stop></linearGradient></defs><defs><linearGradient id="grad1_6" x1="66.7%" y1="100%" x2="100%" y2="0%"><stop offset="-10%" stop-color="#e8eeff" stop-opacity="1"></stop><stop offset="110%" stop-color="#e9ddff" stop-opacity="1"></stop></linearGradient></defs><defs><linearGradient id="grad1_7" x1="66.7%" y1="100%" x2="100%" y2="0%"><stop offset="-10%" stop-color="#e8eeff" stop-opacity="1"></stop><stop offset="110%" stop-color="#f8fafc" stop-opacity="1"></stop></linearGradient></defs><defs><linearGradient id="grad2_0" x1="0%" y1="100%" x2="33.3%" y2="0%"><stop offset="-10%" stop-color="#fb923c" stop-opacity="1"></stop><stop offset="110%" stop-color="#fb923c" stop-opacity="1"></stop></linearGradient></defs><defs><linearGradient id="grad2_1" x1="0%" y1="100%" x2="33.3%" y2="0%"><stop offset="-10%" stop-color="#ff9178" stop-opacity="1"></stop><stop offset="110%" stop-color="#fb923c" stop-opacity="1"></stop></linearGradient></defs><defs><linearGradient id="grad2_2" x1="0%" y1="100%" x2="33.3%" y2="0%"><stop offset="-10%" stop-color="#ff9178" stop-opacity="1"></stop><stop offset="110%" stop-color="#ff9dae" stop-opacity="1"></stop></linearGradient></defs><defs><linearGradient id="grad2_3" x1="0%" y1="100%" x2="33.3%" y2="0%"><stop offset="-10%" stop-color="#ffb1db" stop-opacity="1"></stop><stop offset="110%" stop-color="#ff9dae" stop-opacity="1"></stop></linearGradient></defs><defs><linearGradient id="grad2_4" x1="0%" y1="100%" x2="33.3%" y2="0%"><stop offset="-10%" stop-color="#ffb1db" stop-opacity="1"></stop><stop offset="110%" stop-color="#fac9f8" stop-opacity="1"></stop></linearGradient></defs><defs><linearGradient id="grad2_5" x1="0%" y1="100%" x2="33.3%" y2="0%"><stop offset="-10%" stop-color="#e9ddff" stop-opacity="1"></stop><stop offset="110%" stop-color="#fac9f8" stop-opacity="1"></stop></linearGradient></defs><defs><linearGradient id="grad2_6" x1="0%" y1="100%" x2="33.3%" y2="0%"><stop offset="-10%" stop-color="#e9ddff" stop-opacity="1"></stop><stop offset="110%" stop-color="#e8eeff" stop-opacity="1"></stop></linearGradient></defs><defs><linearGradient id="grad2_7" x1="0%" y1="100%" x2="33.3%" y2="0%"><stop offset="-10%" stop-color="#f8fafc" stop-opacity="1"></stop><stop offset="110%" stop-color="#e8eeff" stop-opacity="1"></stop></linearGradient></defs><g transform="translate(900, 300)"><path d="M-162 0C-156.3 -15.8 -150.5 -31.7 -145.5 -47.3C-140.5 -62.9 -136.2 -78.2 -128.6 -93.5C-121 -108.7 -110.1 -123.8 -95.8 -131.9C-81.5 -140 -63.8 -141.1 -47.3 -145.5C-30.7 -149.9 -15.4 -157.4 0 -165L0 0Z" fill="#fff1e6"></path><path d="M-141.7 0C-136.7 -13.9 -131.7 -27.7 -127.3 -41.4C-122.9 -55 -119.2 -68.5 -112.6 -81.8C-105.9 -95.1 -96.4 -108.3 -83.8 -115.4C-71.3 -122.5 -55.8 -123.5 -41.4 -127.3C-26.9 -131.1 -13.5 -137.8 0 -144.4L0 0Z" fill="#ffd1ab"></path><path d="M-121.5 0C-117.2 -11.9 -112.9 -23.8 -109.1 -35.5C-105.4 -47.2 -102.2 -58.7 -96.5 -70.1C-90.8 -81.5 -82.6 -92.8 -71.9 -98.9C-61.1 -105 -47.9 -105.9 -35.5 -109.1C-23.1 -112.4 -11.5 -118.1 0 -123.7L0 0Z" fill="#ffb980"></path><path d="M-101.2 0C-97.7 -9.9 -94.1 -19.8 -90.9 -29.5C-87.8 -39.3 -85.1 -48.9 -80.4 -58.4C-75.6 -67.9 -68.8 -77.3 -59.9 -82.4C-50.9 -87.5 -39.9 -88.2 -29.5 -90.9C-19.2 -93.7 -9.6 -98.4 0 -103.1L0 0Z" fill="#ffa154"></path><path d="M-81 0C-78.1 -7.9 -75.3 -15.8 -72.8 -23.6C-70.3 -31.4 -68.1 -39.1 -64.3 -46.7C-60.5 -54.3 -55.1 -61.9 -47.9 -65.9C-40.8 -70 -31.9 -70.6 -23.6 -72.8C-15.4 -74.9 -7.7 -78.7 0 -82.5L0 0Z" fill="#fb923c"></path><path d="M-60.7 0C-58.6 -5.9 -56.4 -11.9 -54.6 -17.7C-52.7 -23.6 -51.1 -29.3 -48.2 -35C-45.4 -40.8 -41.3 -46.4 -35.9 -49.5C-30.6 -52.5 -23.9 -52.9 -17.7 -54.6C-11.5 -56.2 -5.8 -59 0 -61.9L0 0Z" fill="#fb923c"></path><path d="M-40.5 0C-39.1 -4 -37.6 -7.9 -36.4 -11.8C-35.1 -15.7 -34.1 -19.6 -32.2 -23.4C-30.3 -27.2 -27.5 -30.9 -24 -33C-20.4 -35 -16 -35.3 -11.8 -36.4C-7.7 -37.5 -3.8 -39.4 0 -41.2L0 0Z" fill="#fb923c"></path><path d="M-20.2 0C-19.5 -2 -18.8 -4 -18.2 -5.9C-17.6 -7.9 -17 -9.8 -16.1 -11.7C-15.1 -13.6 -13.8 -15.5 -12 -16.5C-10.2 -17.5 -8 -17.6 -5.9 -18.2C-3.8 -18.7 -1.9 -19.7 0 -20.6L0 0Z" fill="#fb923c"></path></g><g transform="translate(0, 0)"><path d="M162 0C158.1 16.1 154.2 32.2 149.3 48.5C144.5 64.9 138.6 81.5 127.8 92.9C117 104.3 101.2 110.4 88.2 121.4C75.1 132.3 64.9 147.9 50.7 156C36.4 164 18.2 164.5 0 165L0 0Z" fill="#fff1e6"></path><path d="M141.8 0C138.3 14.1 134.9 28.1 130.7 42.5C126.4 56.8 121.3 71.3 111.8 81.3C102.4 91.2 88.5 96.6 77.1 106.2C65.7 115.7 56.8 129.4 44.3 136.5C31.9 143.5 15.9 144 0 144.4L0 0Z" fill="#ffd1ab"></path><path d="M121.5 0C118.6 12.1 115.6 24.1 112 36.4C108.3 48.6 104 61.1 95.9 69.7C87.8 78.2 75.9 82.8 66.1 91C56.4 99.2 48.7 110.9 38 117C27.3 123 13.7 123.4 0 123.8L0 0Z" fill="#ffb980"></path><path d="M101.3 0C98.8 10.1 96.4 20.1 93.3 30.3C90.3 40.5 86.6 50.9 79.9 58C73.1 65.2 63.2 69 55.1 75.8C47 82.7 40.6 92.4 31.7 97.5C22.8 102.5 11.4 102.8 0 103.1L0 0Z" fill="#ffa154"></path><path d="M81 0C79 8 77.1 16.1 74.7 24.3C72.2 32.4 69.3 40.7 63.9 46.4C58.5 52.1 50.6 55.2 44.1 60.7C37.6 66.1 32.5 74 25.3 78C18.2 82 9.1 82.3 0 82.5L0 0Z" fill="#fb923c"></path><path d="M60.8 0C59.3 6 57.8 12.1 56 18.2C54.2 24.3 52 30.6 47.9 34.8C43.9 39.1 37.9 41.4 33.1 45.5C28.2 49.6 24.3 55.5 19 58.5C13.7 61.5 6.8 61.7 0 61.9L0 0Z" fill="#fb923c"></path><path d="M40.5 0C39.5 4 38.5 8 37.3 12.1C36.1 16.2 34.7 20.4 32 23.2C29.3 26.1 25.3 27.6 22 30.3C18.8 33.1 16.2 37 12.7 39C9.1 41 4.6 41.1 0 41.3L0 0Z" fill="#fb923c"></path><path d="M20.3 0C19.8 2 19.3 4 18.7 6.1C18.1 8.1 17.3 10.2 16 11.6C14.6 13 12.6 13.8 11 15.2C9.4 16.5 8.1 18.5 6.3 19.5C4.6 20.5 2.3 20.6 0 20.6L0 0Z" fill="#fb923c"></path></g></svg>