<svg id="visual" viewBox="0 0 900 400" width="900" height="400" xmlns="http://www.w3.org/2000/svg" xmlns:xlink="http://www.w3.org/1999/xlink" version="1.1"><path d="M0 252L18.8 258.3C37.7 264.7 75.3 277.3 112.8 281C150.3 284.7 187.7 279.3 225.2 279.8C262.7 280.3 300.3 286.7 337.8 289.7C375.3 292.7 412.7 292.3 450.2 291.5C487.7 290.7 525.3 289.3 562.8 285C600.3 280.7 637.7 273.3 675.2 273.3C712.7 273.3 750.3 280.7 787.8 277C825.3 273.3 862.7 258.7 881.3 251.3L900 244L900 401L881.3 401C862.7 401 825.3 401 787.8 401C750.3 401 712.7 401 675.2 401C637.7 401 600.3 401 562.8 401C525.3 401 487.7 401 450.2 401C412.7 401 375.3 401 337.8 401C300.3 401 262.7 401 225.2 401C187.7 401 150.3 401 112.8 401C75.3 401 37.7 401 18.8 401L0 401Z" fill="#fb923c"></path><path d="M0 269L18.8 274C37.7 279 75.3 289 112.8 293.8C150.3 298.7 187.7 298.3 225.2 293.3C262.7 288.3 300.3 278.7 337.8 274.3C375.3 270 412.7 271 450.2 278C487.7 285 525.3 298 562.8 303.2C600.3 308.3 637.7 305.7 675.2 301.5C712.7 297.3 750.3 291.7 787.8 285.8C825.3 280 862.7 274 881.3 271L900 268L900 401L881.3 401C862.7 401 825.3 401 787.8 401C750.3 401 712.7 401 675.2 401C637.7 401 600.3 401 562.8 401C525.3 401 487.7 401 450.2 401C412.7 401 375.3 401 337.8 401C300.3 401 262.7 401 225.2 401C187.7 401 150.3 401 112.8 401C75.3 401 37.7 401 18.8 401L0 401Z" fill="#fda63f"></path><path d="M0 301L18.8 301.8C37.7 302.7 75.3 304.3 112.8 310.3C150.3 316.3 187.7 326.7 225.2 328.2C262.7 329.7 300.3 322.3 337.8 318.2C375.3 314 412.7 313 450.2 309.8C487.7 306.7 525.3 301.3 562.8 302.7C600.3 304 637.7 312 675.2 312.2C712.7 312.3 750.3 304.7 787.8 304.3C825.3 304 862.7 311 881.3 314.5L900 318L900 401L881.3 401C862.7 401 825.3 401 787.8 401C750.3 401 712.7 401 675.2 401C637.7 401 600.3 401 562.8 401C525.3 401 487.7 401 450.2 401C412.7 401 375.3 401 337.8 401C300.3 401 262.7 401 225.2 401C187.7 401 150.3 401 112.8 401C75.3 401 37.7 401 18.8 401L0 401Z" fill="#feb945"></path><path d="M0 345L18.8 343.7C37.7 342.3 75.3 339.7 112.8 339.5C150.3 339.3 187.7 341.7 225.2 342.2C262.7 342.7 300.3 341.3 337.8 338.5C375.3 335.7 412.7 331.3 450.2 334.2C487.7 337 525.3 347 562.8 351.3C600.3 355.7 637.7 354.3 675.2 349C712.7 343.7 750.3 334.3 787.8 333C825.3 331.7 862.7 338.3 881.3 341.7L900 345L900 401L881.3 401C862.7 401 825.3 401 787.8 401C750.3 401 712.7 401 675.2 401C637.7 401 600.3 401 562.8 401C525.3 401 487.7 401 450.2 401C412.7 401 375.3 401 337.8 401C300.3 401 262.7 401 225.2 401C187.7 401 150.3 401 112.8 401C75.3 401 37.7 401 18.8 401L0 401Z" fill="#fecc4f"></path><path d="M0 379L18.8 374.7C37.7 370.3 75.3 361.7 112.8 360.7C150.3 359.7 187.7 366.3 225.2 371.2C262.7 376 300.3 379 337.8 375.5C375.3 372 412.7 362 450.2 360.8C487.7 359.7 525.3 367.3 562.8 369.7C600.3 372 637.7 369 675.2 366.2C712.7 363.3 750.3 360.7 787.8 360.3C825.3 360 862.7 362 881.3 363L900 364L900 401L881.3 401C862.7 401 825.3 401 787.8 401C750.3 401 712.7 401 675.2 401C637.7 401 600.3 401 562.8 401C525.3 401 487.7 401 450.2 401C412.7 401 375.3 401 337.8 401C300.3 401 262.7 401 225.2 401C187.7 401 150.3 401 112.8 401C75.3 401 37.7 401 18.8 401L0 401Z" fill="#fcdf5c"></path></svg>