<svg id="visual" viewBox="0 0 900 300" width="900" height="300" xmlns="http://www.w3.org/2000/svg" xmlns:xlink="http://www.w3.org/1999/xlink" version="1.1"><path d="M0 139L21.5 130.8C43 122.7 86 106.3 128.8 101.2C171.7 96 214.3 102 257.2 97.3C300 92.7 343 77.3 385.8 75.3C428.7 73.3 471.3 84.7 514.2 94.5C557 104.3 600 112.7 642.8 109C685.7 105.3 728.3 89.7 771.2 81.8C814 74 857 74 878.5 74L900 74L900 301L878.5 301C857 301 814 301 771.2 301C728.3 301 685.7 301 642.8 301C600 301 557 301 514.2 301C471.3 301 428.7 301 385.8 301C343 301 300 301 257.2 301C214.3 301 171.7 301 128.8 301C86 301 43 301 21.5 301L0 301Z" fill="#fb923c"></path><path d="M0 128L21.5 121.2C43 114.3 86 100.7 128.8 107.2C171.7 113.7 214.3 140.3 257.2 152.5C300 164.7 343 162.3 385.8 155C428.7 147.7 471.3 135.3 514.2 127.8C557 120.3 600 117.7 642.8 126C685.7 134.3 728.3 153.7 771.2 156.7C814 159.7 857 146.3 878.5 139.7L900 133L900 301L878.5 301C857 301 814 301 771.2 301C728.3 301 685.7 301 642.8 301C600 301 557 301 514.2 301C471.3 301 428.7 301 385.8 301C343 301 300 301 257.2 301C214.3 301 171.7 301 128.8 301C86 301 43 301 21.5 301L0 301Z" fill="#fda03d"></path><path d="M0 190L21.5 183.7C43 177.3 86 164.7 128.8 153.8C171.7 143 214.3 134 257.2 140.2C300 146.3 343 167.7 385.8 177.7C428.7 187.7 471.3 186.3 514.2 180.5C557 174.7 600 164.3 642.8 165C685.7 165.7 728.3 177.3 771.2 174.7C814 172 857 155 878.5 146.5L900 138L900 301L878.5 301C857 301 814 301 771.2 301C728.3 301 685.7 301 642.8 301C600 301 557 301 514.2 301C471.3 301 428.7 301 385.8 301C343 301 300 301 257.2 301C214.3 301 171.7 301 128.8 301C86 301 43 301 21.5 301L0 301Z" fill="#feae40"></path><path d="M0 211L21.5 205.3C43 199.7 86 188.3 128.8 186.5C171.7 184.7 214.3 192.3 257.2 188.2C300 184 343 168 385.8 160.7C428.7 153.3 471.3 154.7 514.2 159.5C557 164.3 600 172.7 642.8 181C685.7 189.3 728.3 197.7 771.2 202.8C814 208 857 210 878.5 211L900 212L900 301L878.5 301C857 301 814 301 771.2 301C728.3 301 685.7 301 642.8 301C600 301 557 301 514.2 301C471.3 301 428.7 301 385.8 301C343 301 300 301 257.2 301C214.3 301 171.7 301 128.8 301C86 301 43 301 21.5 301L0 301Z" fill="#ffbc45"></path><path d="M0 216L21.5 219.7C43 223.3 86 230.7 128.8 227.8C171.7 225 214.3 212 257.2 210.7C300 209.3 343 219.7 385.8 225.7C428.7 231.7 471.3 233.3 514.2 232.7C557 232 600 229 642.8 227.5C685.7 226 728.3 226 771.2 223.5C814 221 857 216 878.5 213.5L900 211L900 301L878.5 301C857 301 814 301 771.2 301C728.3 301 685.7 301 642.8 301C600 301 557 301 514.2 301C471.3 301 428.7 301 385.8 301C343 301 300 301 257.2 301C214.3 301 171.7 301 128.8 301C86 301 43 301 21.5 301L0 301Z" fill="#ffca4c"></path><path d="M0 248L21.5 243.3C43 238.7 86 229.3 128.8 230C171.7 230.7 214.3 241.3 257.2 247.5C300 253.7 343 255.3 385.8 249.8C428.7 244.3 471.3 231.7 514.2 224.7C557 217.7 600 216.3 642.8 216.5C685.7 216.7 728.3 218.3 771.2 224.5C814 230.7 857 241.3 878.5 246.7L900 252L900 301L878.5 301C857 301 814 301 771.2 301C728.3 301 685.7 301 642.8 301C600 301 557 301 514.2 301C471.3 301 428.7 301 385.8 301C343 301 300 301 257.2 301C214.3 301 171.7 301 128.8 301C86 301 43 301 21.5 301L0 301Z" fill="#fed755"></path><path d="M0 244L21.5 248.8C43 253.7 86 263.3 128.8 267.5C171.7 271.7 214.3 270.3 257.2 269C300 267.7 343 266.3 385.8 267.8C428.7 269.3 471.3 273.7 514.2 273.7C557 273.7 600 269.3 642.8 267.2C685.7 265 728.3 265 771.2 266.2C814 267.3 857 269.7 878.5 270.8L900 272L900 301L878.5 301C857 301 814 301 771.2 301C728.3 301 685.7 301 642.8 301C600 301 557 301 514.2 301C471.3 301 428.7 301 385.8 301C343 301 300 301 257.2 301C214.3 301 171.7 301 128.8 301C86 301 43 301 21.5 301L0 301Z" fill="#fde55f"></path></svg>